<svg xmlns="http://www.w3.org/2000/svg" viewBox="0 0 72.65 69.72"><defs><style>.cls-1{fill:#ff8000;}.cls-1,.cls-2{stroke:#ff8000;stroke-linecap:round;stroke-linejoin:round;stroke-width:2.21px;}.cls-2{fill:#e2ae2b;}</style></defs><g id="Layer_2" data-name="Layer 2"><g id="Layer_1-2" data-name="Layer 1"><polyline class="cls-1" points="71.45 35.18 71.45 35.18 71.55 35.15 71.55 35.13 71.45 35.13 71.33 35.13 71.16 35.2 70.97 35.32 70.83 35.44 70.61 35.59 70.37 35.73 70.16 35.9 69.94 36.04 69.75 36.23 69.53 36.35 69.32 36.5 69.1 36.71 68.86 36.95 68.52 37.24 68.14 37.63 67.76 38.01 67.4 38.39 67.06 38.78 66.72 39.14 66.46 39.38 66.2 39.62 66.03 39.86 65.81 40.1 65.62 40.24 65.5 40.46 65.21 40.75 65.02 41.03 64.78 41.32 64.52 41.59 64.25 41.83 64.13 42.07 64.04 42.26 63.96 42.5 63.92 42.71 63.82 43.03 63.75 43.31 63.63 43.58 63.53 43.94 63.44 44.23 63.29 44.54 63.22 44.78 63.15 45.07 63.1 45.31 63.08 45.5 63.03 45.79 63.03 46.07 63.03 46.36 63.03 46.7 63.03 47.03 63.1 47.37 63.15 47.66 63.29 47.95 63.39 48.21 63.48 48.45 63.6 48.67 63.7 48.81 63.82 49.03 63.89 49.17 63.99 49.27 64.13 49.51 64.25 49.75 64.47 49.96 64.64 50.23 64.85 50.42 65.02 50.66 65.21 50.8 65.38 50.97 65.55 51.14 65.69 51.26 65.88 51.43 66.03 51.55 66.2 51.62 66.34 51.71 66.46 51.81 66.58 51.93 66.72 52.03 66.87 52.07 66.94 52.15 66.99 52.17 67.01 52.22 67.08 52.24 67.2 52.31 67.32 52.46 67.54 52.63 67.83 52.87 68.07 53.06 68.38 53.35 68.72 53.63 68.91 53.85 69.15 53.99 69.27 54.09 69.34 54.14 69.39 54.14 69.27 54.14 68.96 54.14 68.57 54.14 69.15 54.95 69.15 54.95 69.2 54.95 69.05 54.86 68.86 54.83 68.57 54.76 68.21 54.76 67.83 54.76 67.35 54.76 66.94 54.76 66.56 54.76 66.2 54.81 65.81 54.81 65.5 54.81 65.07 54.81 64.64 54.81 64.23 54.81 63.75 54.81 63.32 54.76 62.88 54.71 62.52 54.71 62.16 54.71 61.8 54.71 61.49 54.71 61.18 54.71 60.82 54.71 60.48 54.76 60.22 54.76 59.88 54.83 59.57 54.86 59.19 54.95 58.83 55.07 58.42 55.17 58.08 55.31 57.72 55.43 57.46 55.51 57.24 55.58 57 55.65 56.79 55.65 56.64 55.67 56.4 55.72 56.24 55.75 56 55.79 55.76 55.82 55.44 55.89 55.13 55.94 54.65 56.06 54.22 56.15 53.76 56.3 53.28 56.39 52.88 56.56 52.59 56.71 52.25 56.83 51.96 56.97 51.58 57.14 51.2 57.31 50.84 57.47 50.48 57.67 50.16 57.79 49.85 57.93 49.52 58.12 49.23 58.29 49.04 58.43 48.82 58.6 48.7 58.77 48.56 58.94 48.48 59.13 48.36 59.27 48.27 59.47 48.2 59.66 48.05 59.83 47.93 60.02 47.76 60.26 47.6 60.52 47.48 60.79 47.31 61.05 47.24 61.27 47.16 61.51 47.12 61.75 47.07 62.06 47.04 62.37 47.02 62.71 47.02 63.04 46.97 63.28 46.95 63.52 46.95 63.71 46.9 63.91 46.9 64.12 46.88 64.27 46.88 64.46 46.88 64.63 46.88 64.79 46.88 64.94 46.88 65.11 46.88 65.32 46.83 65.56 46.83 65.83 46.83 66.07 46.8 66.35 46.78 66.67 46.78 66.91 46.78 67.15 46.78 67.27 46.78 67.39 46.78 67.43 46.95 67.24 47.26 66.83 47.67 66.28 47.31 67.39 47.31 67.39 47.24 67.39 47.07 67.39 46.95 67.36 46.78 67.24 46.56 67.19 46.32 67.05 46.08 66.95 45.8 66.83 45.48 66.71 45.12 66.59 44.76 66.47 44.36 66.31 43.95 66.16 43.54 65.99 43.11 65.85 42.65 65.68 42.24 65.54 41.79 65.37 41.43 65.23 41.14 65.08 40.78 64.94 40.44 64.79 40.13 64.72 39.82 64.63 39.56 64.53 39.22 64.46 38.88 64.39 38.64 64.34 38.48 64.27 38.28 64.19 38.14 64.17 38 64.12 37.83 64.07 37.71 63.95 37.52 63.93 37.3 63.79 37.01 63.71 36.75 63.62 36.46 63.52 36.2 63.43 35.91 63.33 35.72 63.23 35.5 63.11 35.36 63.04 35.19 62.99 35.12 62.92 35 62.9 34.88 62.87 34.76 62.8 34.68 62.8 34.54 62.73 34.4 62.73 34.23 62.71 33.99 62.66 33.8 62.63 33.53 62.61 33.36 62.59 33.22 62.59 33.05 62.59 32.98 62.59 32.81 62.59 32.72 62.59 32.57 62.59 32.43 62.59 32.31 62.59 32.04 62.59 31.8 62.63 31.47 62.73 31.13 62.9 30.82 63.04 30.51 63.16 30.22 63.26 30.08 63.33 29.88 63.4 29.74 63.47 29.57 63.55 29.33 63.64 29.07 63.79 28.73 64 28.4 64.27 28.04 64.53 27.72 64.75 27.44 64.94 27.2 65.08 27.05 65.15 26.93 65.23 26.81 65.25 26.76 65.32 26.64 65.39 26.45 65.49 26.19 65.68 25.85 65.95 25.42 66.31 24.84 66.69 24.29 67.03 23.79 67.36 23.33 67.6 23.02 67.84 22.76 67.99 22.49 68.15 22.37 68.32 22.23 68.42 22.13 68.49 22.08 68.51 22.06 68.56 22.06 68.61 22.37 68.61 22.73 68.44 22.13 68.11 22.13 68.11 22.13 68.27 22.13 68.23 22.13 68.11 22.13 67.96 22.08 67.79 22.01 67.65 21.94 67.48 21.87 67.31 21.84 67.15 21.82 67 21.77 66.79 21.72 66.64 21.72 66.47 21.65 66.23 21.6 66.07 21.6 65.85 21.53 65.68 21.48 65.49 21.41 65.32 21.36 65.23 21.34 65.11 21.34 65.03 21.34 64.94 21.32 64.84 21.32 64.67 21.24 64.53 21.24 64.36 21.2 64.19 21.2 64.03 21.12 63.83 21.12 63.64 21.1 63.47 21.05 63.35 21.03 63.26 20.98 63.11 20.98 63.04 20.98 62.9 20.98 62.73 20.91 62.63 20.88 62.42 20.86 62.27 20.81 62.11 20.74 61.96 20.69 61.82 20.6 61.67 20.5 61.51 20.4 61.31 20.31 61.1 20.26 60.95 20.14 60.79 20.02 60.67 19.95 60.5 19.85 60.33 19.78 60.16 19.66 59.97 19.54 59.83 19.42 59.61 19.28 59.42 19.18 59.27 19.04 59.13 18.92 58.99 18.82 58.91 18.68 58.75 18.56 58.55 18.44 58.43 18.36 58.29 18.22 58.12 18.1 57.98 18.03 57.83 17.91 57.69 17.76 57.5 17.62 57.31 17.43 57.14 17.21 56.9 17 56.78 16.85 56.56 16.66 56.39 16.56 56.27 16.4 56.13 16.25 56.03 16.13 55.89 15.96 55.75 15.77 55.63 15.56 55.48 15.36 55.34 15.2 55.22 15 55.12 14.79 55.05 14.6 54.95 14.33 54.81 14.12 54.64 13.85 54.5 13.56 54.33 13.28 54.14 12.96 54.02 12.68 53.85 12.39 53.75 12 53.59 11.67 53.47 11.36 53.37 11.04 53.3 10.76 53.23 10.52 53.15 10.28 53.06 10.04 52.96 9.72 52.87 9.46 52.77 9.22 52.7 8.91 52.55 8.57 52.46 8.19 52.31 7.8 52.24 7.35 52.1 6.84 51.93 6.32 51.81 5.81 51.71 5.36 51.64 5 51.59 4.76 51.55 4.59 51.55 4.52 51.55 4.52 51.5 4.44 51.5 4.4 51.5 4.3 51.5 4.18 51.5 4.04 51.5 3.82 51.45 3.63 51.43 3.36 51.43 3.12 51.4 2.98 51.4 2.86 51.4 2.81 51.4 2.74 51.4 2.74 51.38 2.74 51.33 2.74 51.31 2.74 51.26 2.93 51.26 3.34 51.26 3.94 51.19 4.66 50.95 2.48 51.5 2.48 51.5 2.93 51.4 3.12 51.31 3.34 51.19 3.46 51.09 3.63 50.99 3.82 50.87 4.01 50.71 4.18 50.56 4.37 50.35 4.52 50.18 4.66 49.96 4.88 49.77 5.12 49.51 5.31 49.27 5.48 49.1 5.6 48.91 5.69 48.76 5.84 48.57 5.91 48.43 6.03 48.21 6.15 48.02 6.27 47.83 6.41 47.59 6.51 47.37 6.63 47.13 6.75 46.91 6.87 46.7 6.94 46.46 7.06 46.29 7.11 46.15 7.2 46.03 7.23 45.83 7.28 45.69 7.35 45.45 7.4 45.23 7.4 44.95 7.47 44.61 7.52 44.32 7.59 44.01 7.66 43.77 7.73 43.53 7.8 43.31 7.83 43.1 7.88 42.86 7.9 42.67 7.97 42.45 7.97 42.31 8 42.07 8.04 41.87 8.04 41.61 8.09 41.39 8.12 41.15 8.12 40.89 8.16 40.65 8.16 40.41 8.16 40.15 8.19 39.86 8.19 39.57 8.19 39.28 8.21 38.95 8.26 38.66 8.26 38.39 8.26 38.08 8.26 37.79 8.26 37.48 8.26 37.17 8.26 36.91 8.21 36.64 8.16 36.4 8.12 36.21 8.04 35.97 8 35.73 7.97 35.49 7.97 35.2 7.95 34.91 7.88 34.6 7.88 34.27 7.8 33.98 7.73 33.64 7.61 33.33 7.47 33.02 7.35 32.68 7.11 32.39 6.94 32.08 6.72 31.77 6.51 31.48 6.32 31.22 6.1 30.93 5.96 30.71 5.76 30.47 5.64 30.26 5.48 29.97 5.31 29.68 5.14 29.39 4.92 29.11 4.76 28.82 4.56 28.55 4.42 28.29 4.23 28.05 4.04 27.76 3.84 27.52 3.68 27.28 3.51 27.04 3.34 26.85 3.2 26.68 3.08 26.54 2.93 26.42 2.84 26.27 2.69 26.15 2.48 25.96 2.26 25.75 2.02 25.53 1.78 25.34 1.58 25.22 1.46 25.15 1.42 25.1 1.37 25.1 1.34 25.1 1.3 25.1 1.3 25.34 1.3 25.7 1.37 26.08 1.7 26.32 2.11 26.32 1.1 25.41 1.1 25.41 1.78 25.07 1.94 25.05 2.11 25 2.26 24.95 2.4 24.88 2.55 24.83 2.67 24.71 2.84 24.59 2.98 24.47 3.15 24.35 3.34 24.23 3.51 24.09 3.75 23.92 3.96 23.73 4.23 23.54 4.52 23.39 4.78 23.2 5.07 23.03 5.36 22.79 5.64 22.63 5.91 22.41 6.15 22.17 6.41 21.98 6.63 21.74 6.8 21.57 6.94 21.45 7.11 21.35 7.2 21.23 7.35 21.16 7.47 21.04 7.59 20.99 7.8 20.85 7.97 20.75 8.16 20.66 8.36 20.49 8.62 20.35 8.84 20.18 9.05 19.99 9.29 19.84 9.44 19.72 9.6 19.63 9.72 19.51 9.84 19.39 9.99 19.27 10.16 19.12 10.32 18.95 10.47 18.79 10.68 18.55 10.8 18.4 10.95 18.23 11.04 18.16 11.12 18.11 11.24 17.99 11.31 17.92 11.38 17.92 11.5 17.8 11.64 17.63 11.79 17.47 11.93 17.25 12.08 17.03 12.27 16.82 12.39 16.63 12.48 16.51 12.6 16.39 12.68 16.27 12.72 16.17 12.82 16.12 12.89 16 13.01 15.86 13.11 15.67 13.23 15.4 13.28 15.14 13.44 14.8 13.49 14.47 13.61 14.2 13.68 13.91 13.78 13.7 13.85 13.51 13.9 13.43 13.9 13.31 13.92 13.22 13.92 13.07 14 12.95 14 12.74 14.07 12.52 14.12 12.28 14.14 11.99 14.21 11.71 14.21 11.47 14.26 11.23 14.26 10.99 14.26 10.75 14.26 10.58 14.33 10.34 14.33 10.07 14.33 9.83 14.33 9.55 14.33 9.31 14.33 9.14 14.33 8.97 14.33 8.83 14.38 8.75 14.38 8.66 14.38 8.59 14.38 8.54 14.38 8.51 14.38 8.44 14.45 8.37 14.45 8.27 14.5 8.06 14.57 7.82 14.64 7.58 14.69 7.34 14.72 7.15 14.72 7 14.72 6.95 14.72 6.91 14.72 6.95 14.72 7.12 14.69 7.31 16.13 6.31 16.13 6.31 16.13 6.23 16.16 6.23 16.25 6.26 16.37 6.38 16.56 6.52 16.73 6.71 16.95 6.91 17.16 7.12 17.4 7.34 17.72 7.58 18.03 7.79 18.44 7.99 18.84 8.23 19.28 8.37 19.73 8.54 20.02 8.71 20.31 8.83 20.57 8.95 20.74 9.04 20.98 9.14 21.12 9.23 21.32 9.28 21.46 9.35 21.6 9.43 21.77 9.47 21.99 9.5 22.25 9.55 22.61 9.59 22.97 9.62 23.31 9.62 23.52 9.62 23.76 9.64 23.91 9.69 24 9.69 24.12 9.71 24.24 9.74 24.41 9.74 24.56 9.74 24.77 9.74 25.01 9.74 25.23 9.74 25.56 9.74 25.9 9.64 26.26 9.59 26.6 9.5 26.81 9.47 27.05 9.47 27.15 9.43 27.2 9.43 27.22 9.38 27.29 9.35 27.41 9.28 27.53 9.16 27.77 9.02 28.04 8.78 28.3 8.59 28.52 8.44 28.64 8.37 28.73 8.32 28.83 8.3 28.88 8.23 29 8.18 29.12 8.11 29.26 7.99 29.45 7.82 29.69 7.6 29.96 7.39 30.22 7.15 30.46 6.95 30.63 6.79 30.77 6.71 30.87 6.57 30.99 6.47 31.13 6.38 31.25 6.26 31.3 6.16 31.37 6.07 31.47 5.92 31.66 5.71 31.9 5.44 32.16 5.2 32.38 4.94 32.55 4.7 32.69 4.48 32.81 4.31 32.93 4.15 33 4 33.05 3.91 33.17 3.79 33.22 3.62 33.29 3.4 33.39 3.14 33.46 2.9 33.58 2.66 33.65 2.51 33.68 2.35 33.72 2.27 33.75 2.18 33.8 2.11 33.8 2.06 33.8 2.03 33.82 2.03 33.6 2.03 33.29 2.11 33 2.11 35.02 1.1 35.02 1.1 35.04 1.1 35.12 1.1 35.12 1.19 35.19 1.34 35.28 1.51 35.38 1.65 35.5 1.89 35.67 2.11 35.86 2.35 36.08 2.56 36.2 2.73 36.39 2.9 36.56 3.07 36.7 3.19 36.87 3.31 37.01 3.43 37.11 3.59 37.23 3.79 37.37 3.93 37.49 4.07 37.66 4.22 37.78 4.39 37.92 4.48 38.12 4.63 38.28 4.77 38.5 4.91 38.72 5.06 38.88 5.23 39.08 5.39 39.17 5.47 39.27 5.59 39.34 5.63 39.44 5.68 39.51 5.71 39.6 5.83 39.75 5.92 39.96 6.07 40.25 6.26 40.52 6.47 40.85 6.71 41.14 6.86 41.38 6.98 41.62 7.15 41.88 7.24 42.1 7.31 42.27 7.39 42.46 7.46 42.7 7.46 43.01 7.55 43.35 7.6 43.68 7.67 44 7.7 44.24 7.72 44.43 7.75 44.55 7.79 44.67 7.82 44.76 7.82 44.84 7.87 44.88 7.87 45.03 7.89 45.27 7.91 45.68 7.91 46.13 7.91 46.68 7.91 47.31 7.91 47.98 7.91 48.6 7.89 49.08 7.87 49.37 7.82 49.56 7.82 49.73 7.82 49.85 7.79 50 7.75 50.12 7.72 50.33 7.7 50.48 7.67 50.67 7.6 50.88 7.51 51.08 7.46 51.36 7.39 51.56 7.27 51.72 7.22 51.84 7.15 52.04 7.05 52.18 6.91 52.4 6.76 52.66 6.57 52.88 6.31 53.12 6.07 53.28 5.85 53.43 5.68 53.55 5.51 53.64 5.39 53.69 5.3 53.76 5.18 53.84 5.06 53.91 5.01 53.98 4.87 54.08 4.77 54.15 4.67 54.22 4.58 54.29 4.48 54.39 4.43 54.41 4.39 54.44 4.31 54.48 4.31 54.53 4.27 54.56 4.19 54.6 4.12 54.65 4.03 54.77 3.91 54.84 3.81 54.92 3.71 55.01 3.67 55.01 3.64 55.01 3.62 55.01 3.59 54.84 3.79 54.6 3.95 54.65 3.95 54.65 3.95 54.65 3.93 54.65 3.95 54.65 4.15 54.65 4.46 54.56 4.87 54.39 5.37 54.17 5.92 53.96 6.38 53.67 6.91 53.48 7.39 53.26 7.75 53.04 8.13 52.88 8.42 52.8 8.63 52.73 8.83 52.66 9.02 52.61 9.19 52.59 9.38 52.54 9.59 52.52 9.86 52.47 10.07 52.4 10.36 52.37 10.65 52.32 10.94 52.3 11.25 52.25 11.54 52.25 11.8 52.25 12.02 52.25 12.21 52.25 12.4 52.25 12.59 52.25 12.74 52.3 12.95 52.37 13.15 52.44 13.36 52.52 13.48 52.59 13.67 52.66 13.72 52.73 13.87 52.76 13.94 52.8 14.03 52.88 14.15 52.97 14.35 53.07 14.47 53.19 14.66 53.26 14.71 53.33 14.8 53.4 14.83 53.5 14.87 53.57 14.95 53.67 15.02 53.76 15.04 53.81 15.04 53.84 15.07 53.88 15.07 53.96 15.11 54.03 15.11 54.08 15.11 54.15 15.11 54.29 15.14 54.44 15.19 54.7 15.19 55.01 15.23 55.32 15.23 55.54 15.23 55.76 15.23 55.95 15.23 56 15.23 56.12 15.23 56.21 15.23 56.28 15.23 56.36 15.23 56.48 15.23 56.64 15.23 56.79 15.23 56.93 15.23 57.12 15.23 57.24 15.19 57.41 15.19 57.51 15.19 57.65 15.14 57.75 15.11 57.87 15.07 57.96 15.04 58.11 15.02 58.25 14.95 58.47 14.87 58.68 14.83 58.95 14.8 59.19 14.75 59.45 14.71 59.67 14.66 59.81 14.61 59.93 14.61 59.98 14.59 60.05 14.59 60.1 14.56 60.17 14.56 60.22 14.51 60.34 14.47 60.41 14.47 60.56 14.47 60.77 14.44 60.96 14.44 61.23 14.44 61.49 14.39 61.73 14.37 61.92 14.35 62.12 14.27 62.26 14.23 62.38 14.2 62.45 14.2 62.48 14.2 62.52 14.2 62.6 14.15 62.69 14.13 62.81 14.11 62.96 14.03 63.15 13.94 63.36 13.87 63.53 13.75 63.7 13.7 63.84 13.63 63.92 13.6 63.99 13.51 63.89 13.6 63.68 13.75 63.29 14.03 62.81 14.2 63.92 13.19 63.92 13.19 63.82 13.67 63.63 13.96 63.46 14.3 63.24 14.61 63.08 14.99 62.86 15.33 62.64 15.74 62.4 16.17 62.14 16.63 61.92 17.11 61.66 17.63 61.49 18.14 61.25 18.62 61.08 19.07 60.94 19.43 60.89 19.72 60.82 19.96 60.82 20.15 60.82 20.27 60.82 20.44 60.82 20.61 60.82 20.85 60.77 21.16 60.77 21.5 60.77 21.91 60.77 22.31 60.77 22.79 60.77 23.27 60.77 23.68 60.77 24.11 60.82 24.4 60.89 24.81 60.94 25.15 61.06 25.53 61.13 25.84 61.23 26.15 61.3 26.49 61.42 26.8 61.49 27.09 61.56 27.4 61.68 27.76 61.8 28.1 61.92 28.41 62.04 28.65 62.14 28.84 62.26 29.01 62.38 29.25 62.52 29.44 62.64 29.66 62.81 29.85 62.96 30.09 63.15 30.28 63.32 30.47 63.48 30.67 63.77 30.93 64.11 31.22 64.52 31.53 64.95 31.84 65.45 32.13 65.96 32.47 66.46 32.78 66.99 33.02 67.4 33.23 67.73 33.38 67.97 33.5 68.14 33.55 68.31 33.62 68.5 33.64 68.72 33.76 68.96 33.86 69.27 33.95 69.53 34.1 69.87 34.22 70.13 34.34 70.35 34.43 70.49 34.53 70.61 34.58 70.66 34.58 70.66 34.6 70.71 34.6 70.73 34.6 70.83 34.65 70.9 34.7 70.97 34.72 71.02 34.77 70.97 34.77 70.61 34.77 70.01 34.77 69.27 34.77 68.38 34.6"/><polyline class="cls-2" points="45.6 15.55 45.6 15.55 44.14 15.11 43.76 15.04 43.4 14.99 42.99 14.92 42.56 14.83 42.1 14.8 41.55 14.68 41.07 14.61 40.59 14.56 40.04 14.44 39.51 14.44 38.86 14.39 38.07 14.39 37.18 14.39 36.12 14.44 34.88 14.59 33.46 14.8 31.9 15.11 30.34 15.43 28.78 15.83 27.29 16.19 25.78 16.63 24.41 17.08 22.95 17.56 21.6 18.11 20.36 18.71 19.2 19.31 18.17 19.96 17.21 20.68 16.37 21.45 15.6 22.29 14.93 23.2 14.33 24.16 13.76 25.07 13.28 26.06 12.89 27.16 12.56 28.34 12.27 29.63 11.98 31.07 11.79 32.56 11.64 34.1 11.55 35.59 11.55 37.05 11.55 38.49 11.69 39.83 12 41.15 12.39 42.43 12.8 43.65 13.28 44.9 13.85 46.15 14.45 47.35 15.08 48.5 15.8 49.65 16.59 50.73 17.43 51.74 18.44 52.7 19.47 53.54 20.5 54.26 21.6 54.91 22.76 55.51 23.93 56.06 25.13 56.54 26.33 56.95 27.51 57.31 28.78 57.67 30.1 57.88 31.47 58.12 32.81 58.24 34.23 58.29 35.6 58.29 37.01 58.29 38.33 58.19 39.63 57.93 40.85 57.69 42.03 57.38 43.11 56.97 44.16 56.54 45.1 55.99 46.04 55.39 47.02 54.74 48.05 54.02 49.23 53.18 50.48 52.29 51.77 51.43 52.88 50.56 53.96 49.82 54.72 49.12 55.35 48.52 55.76 47.97 56.09 47.37 56.4 46.7 56.69 45.83 56.93 44.9 57.2 43.87 57.41 42.79 57.6 41.66 57.82 40.51 58.08 39.45 58.25 38.54 58.35 37.72 58.47 37 58.47 36.35 58.47 35.73 58.47 35.15 58.47 34.53 58.42 33.88 58.32 33.14 58.2 32.39 58.11 31.6 58.01 30.88 57.89 30.26 57.82 29.66 57.72 29.18 57.58 28.77 57.41 28.36 57.24 28 57.05 27.59 56.86 27.28 56.69 26.85 56.48 26.39 56.24 25.89 56 25.34 55.8 24.83 55.54 24.35 55.4 23.95 55.2 23.61 55.01 23.32 54.77 23.08 54.6 22.84 54.36 22.63 54.15 22.41 53.96 22.22 53.76 21.98 53.55 21.74 53.33 21.47 53.12 21.23 52.88 20.99 52.66 20.75 52.4 20.59 52.18 20.37 51.96 20.2 51.7 19.99 51.44 19.77 51.2 19.6 50.96 19.39 50.67 19.15 50.4 18.95 50.21 18.79 50 18.55 49.8 18.38 49.64 18.23 49.49 18.07 49.28 17.92 49.13 17.8 48.96 17.68 48.75 17.54 48.6 17.47 48.39 17.35 48.2 17.25 47.98 17.15 47.79 17.03 47.6 16.96 47.4 16.84 47.26 16.82 47.19 16.79 47.16 16.79 47.07 16.75 47.02 16.75 46.95 16.7 46.8 16.7 46.64 16.63 46.44 16.6 46.28 16.58 46.08 16.55 46.04 16.51 45.96 16.48 45.87 16.43 45.8 16.41 45.72 16.34 45.68 16.34 45.6 16.31 45.53 16.27 45.48 16.27 45.44 16.24 45.41 16.24 45.39 16.24 45.32 16.19 45.32 16.17 45.24 16.17 45.2 16.17 45.12 16.15 45.1 16.15 45.1 16.12 45.1 16.07 45.1 16 45.1 15.98 45.08 15.95 44.98 15.95 44.96 15.95 44.84 15.93 44.76 15.88 44.67 15.74 44.67 15.26 44.67 14.47"/></g></g></svg>