<svg xmlns="http://www.w3.org/2000/svg" viewBox="0 0 257.57 169.24"><defs><style>.cls-1{fill:#55d400;}.cls-1,.cls-2,.cls-3,.cls-4,.cls-5{stroke:#000;stroke-width:2px;}.cls-1,.cls-2,.cls-3,.cls-4{stroke-miterlimit:10;}.cls-1,.cls-2{fill-rule:evenodd;}.cls-2{fill:#4a0;}.cls-3{fill:#fff;}.cls-5{fill:none;}</style></defs><g id="Layer_2" data-name="Layer 2"><g id="Layer_1-2" data-name="Layer 1"><path class="cls-1" d="M168.7,11.64c19.18,2.69,47.61,4.72,37.76,26.84C203.24,49,195.83,73.37,186.39,76.62c-35,12.06-33.69,71.77-149.15,44.66-7.82-2.93-46.46-17.72-33.67-35.49,27.82-50.8,55-29.48,108.27-56.86,3.7-3.35,8.79-10.36,22.29-7.28-8.18-20,24.53-29.43,34.58-10Z"/><path class="cls-2" d="M38.83,93.17c11.89-13.37,46-9.61,33.94,21.38-2.29,7.78-8.06,15.11-25.29,24.2,14.36.09,17.11,6.54,20.37,4.13,3.81-3.92,6.56-14.61,12.17-9.09,6.33,6.81-10.5,8.46-9.27,11.62.86,4.63,15.41-8.25,18.75-.63,2.61,9.68-13.89,4-14.65,8.39-.23,2.86,15.63.32,11.46,8.72-3.33,7.28-13.08-8.11-15.3-6.31-2.79,1.84,6.5,9.8-2,12.58-7.8,1.25-.75-13.27-3.66-13.78-13.4-4-29.87-1.67-47.85-16.35-8.27-4-.21-11.38,1.2-12.91,9.26-8.52,14.81-25.89,20.12-32Z"/><path class="cls-3" d="M158.8,14.5a9.17,9.17,0,1,1-9.17-9.17A9.17,9.17,0,0,1,158.8,14.5Z"/><path class="cls-4" d="M156.64,17a5,5,0,1,1-5-5A5,5,0,0,1,156.64,17Z"/><path class="cls-2" d="M170.61,81.16c-14.85-11.46,10.54-41.49,19.11-20.93,7.06,24.89,5.27,16.55,13.47,32.58,5.17,10.27,24.34,2.62,35.93.45,2.8.22-.11-12.45,9.37-8.88,8.49,5.74-4.91,5.92-4.36,11.61.41,3.3,13-5.38,12.42,3.87-.74,5.4-12.3-.37-13.79,1.59-1.38,2.5,12.81,6.19,8.65,11.37-6.11,5.24-9.61-8.62-11.83-6.82-3.78,2.44,4.87,7,.45,10.92-3.48,2.36-8.47-4.16-7.28-9.1,1.89-7.83-29.88,9.06-36.39-.91-11.55-18.11-8.82-13.3-25.75-25.76Z"/><path class="cls-5" d="M204,43.67c-14.68,4.86-26.41,3.85-33.38-1.43"/></g></g></svg>