<svg xmlns="http://www.w3.org/2000/svg" viewBox="0 0 137.23 75.12"><defs><style>.cls-1{fill:#e0e0e0;}</style></defs><g id="Layer_2" data-name="Layer 2"><g id="Layer_1-2" data-name="Layer 1"><polyline class="cls-1" points="26.06 60.68 26.06 60.68 24.43 60.12 24.17 60 23.95 59.88 23.76 59.76 23.52 59.62 23.23 59.45 22.97 59.24 22.63 59.04 22.3 58.83 21.86 58.59 21.34 58.3 20.66 58.06 19.9 57.82 19.06 57.56 18.17 57.29 17.21 56.96 16.3 56.6 15.26 56.14 14.18 55.68 13.08 55.06 11.93 54.44 10.9 53.79 9.84 53.16 8.86 52.59 7.9 52.01 7.01 51.48 6.17 50.96 5.42 50.43 4.73 49.92 4.13 49.28 3.55 48.56 3.02 47.88 2.52 47.02 2.14 46.23 1.8 45.39 1.39 44.55 1.15 43.68 0.84 42.75 0.55 41.79 0.34 40.83 0.14 39.99 0 39.2 0 38.55 0 37.83 0 37.13 0 36.36 0.19 35.57 0.5 34.76 0.89 33.87 1.39 32.96 1.97 32.16 2.59 31.35 3.29 30.63 3.98 29.84 4.73 29.07 5.38 28.37 6.07 27.77 6.77 27.32 7.39 26.96 8.14 26.74 8.76 26.6 9.62 26.45 10.61 26.26 11.78 26.07 13.08 25.83 14.45 25.61 15.84 25.42 17.06 25.23 18.22 25.11 19.3 25.01 20.21 25.01 20.95 25.01 21.53 25.01 21.98 25.01 22.3 25.01 22.54 25.01 22.7 25.01 22.82 25.04 22.97 25.04 22.99 25.04 23.06 25.04 23.09 25.04 23.14 25.04 23.18 25.11 23.33 25.13 23.57 25.23 23.9 25.3 24.24 25.32 24.55 25.42 24.86 25.49 25.1 25.54 25.22 25.54 25.27 25.54 25.3 25.54 25.3 25.42 25.3 25.32 25.27 25.23 25.22 25.11 25.22 24.94 25.18 24.75 25.13 24.48 25.13 24.17 25.13 23.79 25.13 23.36 25.13 22.85 25.13 22.32 25.13 21.89 25.13 21.44 25.22 20.96 25.39 20.4 25.56 19.78 25.8 19.13 26.02 18.41 26.3 17.86 26.47 17.28 26.59 16.8 26.78 16.37 26.95 15.92 27.17 15.46 27.46 14.98 27.84 14.45 28.22 13.92 28.63 13.44 29.06 12.99 29.35 12.63 29.66 12.32 29.86 12.17 30.1 12.03 30.36 11.93 30.7 11.81 30.96 11.74 31.39 11.6 31.87 11.45 32.52 11.26 33.36 10.97 34.39 10.68 35.5 10.44 36.55 10.23 37.46 10.13 38.11 10.13 38.59 10.13 38.93 10.13 39.19 10.23 39.41 10.4 39.62 10.56 39.89 10.76 40.13 10.97 40.37 11.21 40.73 11.45 40.97 11.74 41.26 11.93 41.47 12.17 41.66 12.32 41.76 12.56 41.9 12.68 42 12.8 42.07 12.82 42.17 12.89 42.17 12.94 42.24 12.99 42.29 13.08 42.34 13.16 42.43 13.18 42.43 13.28 42.5 13.28 42.5 13.23 42.5 13.18 42.5 13.16 42.5 13.08 42.5 13.04 42.5 12.99 42.5 12.89 42.5 12.87 42.5 12.8 42.5 12.7 42.55 12.56 42.7 12.32 42.86 12.05 43.2 11.64 43.73 11.16 44.35 10.59 45.12 10.04 45.89 9.56 46.68 9.08 47.42 8.64 48.17 8.21 48.94 7.76 49.7 7.3 50.5 6.87 51.34 6.41 52.15 6 53.09 5.57 54.1 5.16 55.06 4.8 56.02 4.44 57 4.04 58.03 3.72 58.94 3.46 59.81 3.2 60.6 3 61.3 2.81 61.92 2.64 62.5 2.48 63.1 2.31 63.7 2.19 64.3 2 65.06 1.78 65.9 1.54 66.86 1.28 67.97 0.99 69.02 0.72 70.22 0.51 71.23 0.27 72.12 0.12 72.86 0 73.44 0 73.92 0 74.33 0 74.74 0 75.12 0 75.48 0 75.86 0.08 76.32 0.12 76.75 0.24 77.21 0.32 77.66 0.44 78.02 0.56 78.43 0.63 78.6 0.77 78.79 0.84 78.89 0.89 79.03 0.99 79.15 1.06 79.37 1.2 79.63 1.42 79.92 1.56 80.16 1.78 80.47 2.04 80.78 2.26 81.07 2.48 81.29 2.69 81.53 2.88 81.67 3.05 81.79 3.17 82.03 3.36 82.25 3.56 82.54 3.72 82.82 4.04 83.23 4.32 83.64 4.66 84.02 5 84.34 5.28 84.6 5.6 84.94 5.93 85.2 6.22 85.37 6.51 85.54 6.7 85.66 6.89 85.8 7.08 85.9 7.18 85.99 7.37 86.09 7.54 86.23 7.85 86.38 8.12 86.57 8.48 86.74 8.76 86.83 9.05 86.93 9.29 87 9.56 87.02 9.75 87.12 9.89 87.17 10.13 87.22 10.23 87.22 10.44 87.26 10.59 87.26 10.71 87.29 10.88 87.29 11.12 87.36 11.4 87.38 11.76 87.46 12.12 87.46 12.51 87.46 12.82 87.48 12.99 87.53 13.08 87.53 13.18 87.53 13.23 87.53 13.28 87.53 13.37 87.53 13.44 87.53 13.64 87.53 13.85 87.53 14.14 87.53 14.38 87.53 14.62 87.62 14.81 87.67 14.98 87.7 15.03 87.7 15.08 87.7 15.1 87.7 15.22 87.7 15.34 87.7 15.51 87.77 15.68 87.77 15.82 87.77 15.87 87.77 15.92 87.84 15.92 87.89 15.92 87.94 15.92 87.96 15.92 88.03 15.92 88.06 15.92 88.13 15.92 88.13 15.87 88.13 15.82 88.2 15.75 88.22 15.68 88.3 15.68 88.37 15.65 88.42 15.6 88.46 15.56 88.49 15.56 88.49 15.51 88.49 15.46 88.49 15.41 88.49 15.36 88.49 15.34 88.54 15.34 88.56 15.34 88.63 15.34 88.78 15.34 88.9 15.34 89.09 15.34 89.3 15.32 89.57 15.32 89.93 15.27 90.34 15.17 90.7 15.12 91.15 15.1 91.61 15.03 92.09 14.98 92.57 14.88 92.98 14.81 93.36 14.81 93.77 14.81 94.1 14.81 94.46 14.81 94.82 14.81 95.23 14.88 95.54 14.98 95.9 15.03 96.19 15.1 96.53 15.22 96.77 15.32 97.06 15.36 97.3 15.46 97.49 15.56 97.66 15.65 97.82 15.72 97.9 15.75 97.97 15.82 97.97 15.87 98.14 15.94 98.26 16.04 98.47 16.2 98.74 16.42 98.95 16.66 99.22 16.9 99.46 17.09 99.72 17.38 99.94 17.64 100.22 18 100.51 18.32 100.73 18.65 100.99 18.84 101.14 19.08 101.35 19.28 101.52 19.56 101.78 19.85 102.07 20.16 102.34 20.45 102.6 20.79 102.86 21.05 103.13 21.32 103.46 21.65 103.7 21.92 103.97 22.18 104.26 22.37 104.4 22.56 104.64 22.73 104.83 22.9 105 23.02 105.17 23.14 105.19 23.21 105.29 23.31 105.38 23.4 105.46 23.5 105.6 23.69 105.79 23.84 105.94 24 106.1 24.12 106.2 24.17 106.27 24.17 106.32 24.17 106.39 24.17 106.46 24.17 106.49 24.17 106.56 24.17 106.58 24.17 106.63 24.17 106.66 24.17 106.66 24.12 106.66 24.08 106.7 24.08 106.75 24.08 106.75 24.03 106.75 24 106.8 24 106.99 24 107.4 24 108.02 24 108.94 23.98 109.97 23.88 111.07 23.79 112.06 23.69 113.09 23.69 114.02 23.69 114.91 23.69 115.73 23.69 116.47 23.69 117.19 23.69 117.84 23.69 118.46 23.69 119.09 23.79 119.66 23.88 120.26 24 120.86 24.08 121.46 24.17 122.04 24.32 122.66 24.46 123.22 24.6 123.72 24.77 124.2 24.89 124.56 25.01 124.9 25.13 125.18 25.23 125.5 25.32 125.83 25.49 126.19 25.66 126.55 25.83 126.96 25.97 127.32 26.19 127.73 26.36 128.14 26.64 128.59 26.93 129.19 27.22 129.72 27.51 130.22 27.75 130.66 27.99 131.06 28.18 131.35 28.44 131.78 28.73 132.22 29.02 132.6 29.31 132.89 29.62 133.18 29.88 133.39 30.17 133.56 30.41 133.82 30.7 134.06 31.01 134.26 31.4 134.57 31.76 134.76 32.16 135.02 32.6 135.26 33.1 135.55 33.6 135.84 34.08 136.1 34.59 136.37 35.12 136.58 35.6 136.75 36.1 136.9 36.44 136.92 36.7 136.99 36.94 137.06 37.23 137.14 37.56 137.23 37.83 137.23 38.19 137.23 38.48 137.23 38.84 137.23 39.15 137.23 39.58 137.14 40.04 136.9 40.47 136.73 40.83 136.54 41.12 136.39 41.31 136.27 41.48 136.13 41.6 136.03 41.79 135.84 42.03 135.65 42.27 135.46 42.56 135.26 42.82 135.1 43.08 134.86 43.3 134.74 43.49 134.59 43.64 134.47 43.78 134.33 43.92 134.18 44.04 134.06 44.21 133.9 44.36 133.75 44.55 133.56 44.79 133.25 45.03 132.96 45.39 132.6 45.72 132.26 46.06 131.9 46.32 131.62 46.54 131.35 46.68 131.21 46.83 131.06 46.9 130.9 47.02 130.73 47.19 130.49 47.36 130.22 47.5 129.98 47.74 129.67 48.03 129.29 48.27 128.86 48.56 128.5 48.8 128.26 48.96 128.06 49.11 127.97 49.13 127.94 49.13 127.9 49.16 127.82 49.2 127.73 49.28 127.58 49.4 127.32 49.64 127.03 49.88 126.67 50.07 126.29 50.26 126.05 50.43 125.83 50.55 125.69 50.6 125.64 50.64 125.54 50.64 125.5 50.64 125.4 50.67 125.26 50.72 125.16 50.74 124.9 50.84 124.66 50.96 124.27 51.08 123.91 51.24 123.5 51.32 123.22 51.44 122.93 51.48 122.74 51.51 122.52 51.6 122.33 51.6 122.09 51.63 121.8 51.72 121.46 51.82 121.06 51.92 120.62 52.11 120.19 52.2 119.76 52.32 119.33 52.44 118.97 52.54 118.49 52.68 118.13 52.83 117.7 52.95 117.38 53.02 117.19 53.12 117.05 53.16 116.93 53.19 116.83 53.24 116.64 53.31 116.42 53.36 116.16 53.43 115.8 53.52 115.39 53.6 115.01 53.64 114.6 53.67 114.19 53.72 113.86 53.72 113.59 53.76 113.4 53.76 113.33 53.76 113.28 53.79 113.23 53.79 113.23 53.84 113.23 53.88 113.23 53.91 113.23 53.96 113.23 54 113.23 54.1 113.16 54.2 112.99 54.39 112.87 54.51 112.73 54.63 112.56 54.82 112.44 55.01 112.34 55.16 112.2 55.28 112.06 55.42 111.96 55.59 111.89 55.73 111.82 55.83 111.67 56 111.6 56.21 111.46 56.45 111.24 56.76 110.95 57.08 110.66 57.48 110.3 57.92 109.99 58.28 109.63 58.59 109.46 58.83 109.32 58.97 109.27 59.04 109.22 59.12 109.13 59.16 109.1 59.24 108.94 59.45 108.67 59.64 108.36 60 107.88 60.48 107.26 60.96 106.56 61.47 105.84 62 105.1 62.48 104.59 62.84 104.14 63.17 103.9 63.44 103.7 63.56 103.56 63.6 103.46 63.7 103.37 63.82 103.13 63.94 102.89 64.16 102.55 64.4 102.14 64.68 101.71 65.04 101.18 65.33 100.7 65.62 100.22 65.86 99.86 66 99.58 66.12 99.34 66.22 99.12 66.27 98.86 66.29 98.59 66.39 98.26 66.48 97.82 66.58 97.39 66.65 96.94 66.77 96.48 66.92 96 66.99 95.54 67.06 95.06 67.13 94.66 67.16 94.22 67.2 93.77 67.2 93.36 67.25 92.93 67.25 92.5 67.28 92.06 67.28 91.61 67.32 91.22 67.32 90.77 67.32 90.41 67.32 90.02 67.32 89.76 67.32 89.4 67.25 89.04 67.06 88.66 66.96 88.37 66.84 87.96 66.7 87.62 66.63 87.22 66.51 86.76 66.39 86.38 66.22 85.92 66.05 85.56 65.88 85.2 65.74 84.86 65.52 84.55 65.4 84.29 65.24 84 65.12 83.59 65 83.23 64.88 82.92 64.8 82.61 64.68 82.44 64.59 82.25 64.56 82.13 64.47 81.96 64.4 81.79 64.3 81.67 64.28 81.55 64.2 81.36 64.11 81.24 64.01 81.17 64.01 81 63.92 80.93 63.87 80.83 63.82 80.76 63.72 80.76 63.7 80.66 63.6 80.57 63.56 80.47 63.53 80.4 63.44 80.3 63.34 80.16 63.24 80.09 63.17 79.92 63.08 79.87 63 79.78 62.96 79.7 62.93 79.7 62.88 79.63 62.84 79.56 62.81 79.56 62.76 79.46 62.69 79.32 62.6 79.2 62.48 79.03 62.36 78.89 62.24 78.77 62.12 78.67 62.09 78.6 62 78.53 62 78.43 62 78.36 62 78.29 62.09 78.22 62.12 78.12 62.28 77.93 62.4 77.86 62.57 77.74 62.69 77.66 62.76 77.57 62.88 77.42 62.96 77.33 63.05 77.23 63.15 77.21 63.22 77.16 63.24 77.06 63.34 77.02 63.44 76.85 63.56 76.68 63.7 76.44 63.87 76.2 64.11 75.86 64.3 75.55 64.59 75.19 64.8 74.9 65.04 74.64 65.16 74.5 65.24 74.4 65.28 74.4 65.33 74.33 65.33 74.26 65.36 74.18 65.45 74.04 65.52 73.92 65.62 73.8 65.64 73.7 65.72 73.56 65.74 73.44 65.79 73.39 65.81 73.34 65.81 73.3 65.81 73.27 65.81 73.2 65.81 73.03 65.81 72.79 65.81 72.55 65.88 72.29 65.88 72 65.98 71.66 66 71.42 66.05 71.26 66.1 71.04 66.1 70.87 66.1 70.7 66.1 70.51 66.12 70.3 66.12 70.1 66.12 69.96 66.12 69.72 66.2 69.5 66.22 69.22 66.22 68.9 66.27 68.57 66.29 68.26 66.36 67.82 66.39 67.54 66.39 67.27 66.41 67.06 66.41 66.86 66.41 66.62 66.41 66.34 66.41 65.98 66.41 65.66 66.41 65.26 66.41 64.94 66.41 64.66 66.41 64.34 66.41 64.06 66.41 63.7 66.41 63.38 66.41 63.1 66.39 62.74 66.29 62.5 66.22 62.3 66.12 62.16 66.1 62.06 66 61.94 65.93 61.9 65.88 61.75 65.86 61.63 65.74 61.44 65.64 61.3 65.52 61.13 65.4 60.89 65.33 60.77 65.21 60.62 65.07 60.46 64.97 60.34 64.8 60.26 64.68 60.05 64.52 59.93 64.4 59.78 64.28 59.69 64.16 59.62 64.11 59.57 64.08 59.52 64.01 59.42 63.94 59.33 63.87 59.26 63.72 59.14 63.6 59.06 63.53 58.94 63.44 58.87 63.39 58.87 63.34 58.82 63.34 58.78 63.34 58.73 63.34 58.66 63.34 58.66 63.39 58.66 63.44 58.63 63.44 58.58 63.46 58.56 63.53 58.46 63.6 58.27 63.8 58.13 64.01 57.98 64.28 57.77 64.52 57.58 64.88 57.36 65.24 57.12 65.64 56.9 66 56.74 66.39 56.57 66.63 56.42 66.84 56.3 66.99 56.18 67.16 56.09 67.32 55.97 67.52 55.8 67.78 55.63 68.04 55.37 68.4 55.03 68.76 54.62 69.24 54.17 69.68 53.66 70.18 53.14 70.59 52.61 71.02 52.1 71.28 51.72 71.57 51.36 71.81 51.07 72 50.86 72.22 50.57 72.44 50.26 72.65 49.9 72.94 49.56 73.2 49.15 73.49 48.79 73.73 48.58 73.92 48.41 74.02 48.29 74.07 48.22 74.07 48.17 74.07 48.1 74.07 48 74.07 47.93 74.14 47.76 74.14 47.59 74.21 47.42 74.26 47.16 74.33 46.82 74.43 46.46 74.5 45.96 74.55 45.43 74.67 44.83 74.79 44.28 74.86 43.73 74.93 43.27 75.03 42.86 75.05 42.5 75.05 42.24 75.12 42.07 75.12 41.93 75.12 41.83 75.12 41.76 75.12 41.66 75.12 41.47 75.12 41.26 75.05 41.04 74.98 40.8 74.91 40.61 74.79 40.3 74.72 39.96 74.62 39.6 74.5 39.26 74.38 39 74.28 38.66 74.21 38.4 74.09 38.11 74 37.82 73.85 37.58 73.78 37.32 73.64 36.91 73.49 36.55 73.32 36.17 73.16 35.76 73.01 35.4 72.77 35.09 72.6 34.8 72.44 34.54 72.22 34.27 72.1 34.03 71.98 33.89 71.88 33.72 71.74 33.5 71.64 33.34 71.52 33.12 71.38 32.83 71.26 32.59 71.02 32.26 70.8 31.94 70.59 31.7 70.4 31.46 70.25 31.22 70.08 31.03 69.92 30.82 69.7 30.6 69.56 30.36 69.39 30.19 69.24 30.02 69.05 29.83 68.86 29.66 68.62 29.47 68.38 29.3 68.12 29.14 67.9 28.94 67.64 28.8 67.42 28.66 67.2 28.51 66.99 28.37 66.77 28.22 66.58 28.06 66.39 27.94 66.2 27.79 66 27.67 65.81 27.58 65.62 27.43 65.45 27.36 65.28 27.26 65.12 27.17 65 27.1 64.85 27.07 64.73 27.02 64.59 27.02 64.42 26.93 64.28 26.83 64.08 26.66 63.82 26.59 63.56 26.5 63.34 26.38 63.08 26.3 62.88 26.23 62.74 26.18 62.57 26.16 62.45 26.09 62.33 26.06 62.21 26.02 62 25.92 61.83 25.82 61.64 25.7 61.44 25.63 61.25 25.56 60.96 25.49 60.75 25.39 60.51 25.3 60.29 25.22 60.12 25.1 59.93 25.03 59.72 24.82 59.57 24.74 59.4 24.55 59.24 24.53 59.16 24.43 59.16 24.38 59.16 24.24 59.16 23.95 59.33 23.4 59.93 22.61 60.89 21.7 62.12 20.69 63.29 19.97 64.11"/></g></g></svg>